<?xml version="1.0" encoding="UTF-8" standalone="no"?>
<!-- Uploaded to: SVG Repo, www.svgrepo.com, Generator: SVG Repo Mixer Tools -->

<svg
   version="1.1"
   id="Layer_1"
   viewBox="0 0 512 512"
   xml:space="preserve"
   sodipodi:docname="clouded-weather-svgrepo-com.svg"
   inkscape:version="1.3.2 (091e20e, 2023-11-25, custom)"
   xmlns:inkscape="http://www.inkscape.org/namespaces/inkscape"
   xmlns:sodipodi="http://sodipodi.sourceforge.net/DTD/sodipodi-0.dtd"
   xmlns="http://www.w3.org/2000/svg"
   xmlns:svg="http://www.w3.org/2000/svg"><defs
   id="defs4">
	
	
	
</defs><sodipodi:namedview
   id="namedview4"
   pagecolor="#ffffff"
   bordercolor="#000000"
   borderopacity="0.25"
   inkscape:showpageshadow="2"
   inkscape:pageopacity="0.0"
   inkscape:pagecheckerboard="0"
   inkscape:deskcolor="#d1d1d1"
   inkscape:zoom="1.5175781"
   inkscape:cx="256"
   inkscape:cy="256"
   inkscape:window-width="1920"
   inkscape:window-height="991"
   inkscape:window-x="-9"
   inkscape:window-y="-9"
   inkscape:window-maximized="1"
   inkscape:current-layer="Layer_1" />
<rect
   x="8.2092896"
   y="-598.68481"
   style="fill:#ff9811;stroke-width:0.816947"
   width="17.803007"
   height="68.436508"
   id="rect8"
   ry="8.9015036"
   rx="0"
   transform="rotate(120)" /><rect
   x="338.914"
   y="64.037613"
   style="fill:#ff9811;stroke-width:0.816947"
   width="17.803007"
   height="68.436508"
   id="rect1"
   ry="8.9015036"
   rx="0" />
<path
   id="rect9"
   style="fill:#ff9811;stroke-width:0.679613"
   d="m 512,184.46834 v 19.33555 l -38.3448,9.352 -0.65009,-17.47746 z"
   sodipodi:nodetypes="ccccc" /><rect
   x="432.40326"
   y="-156.52417"
   style="fill:#ff9811;stroke-width:0.816947"
   width="17.803007"
   height="68.436508"
   id="rect6"
   ry="8.9015036"
   rx="0"
   transform="rotate(30)" /><path
   style="fill:#FFDA44;"
   d="M361.189,115.797c-65.67,0-119.096,53.428-119.096,119.098s53.426,119.098,119.096,119.098  s119.098-53.428,119.098-119.098S426.86,115.797,361.189,115.797z"
   id="path2" />
<path
   style="fill:#aed5f3"
   d="M 460.62494,359.37218 C 479.06942,308.10475 467.98221,243.22641 355.66911,234.06772 373.3697,186.1752 316.38612,116.46422 238.75089,114.755 199.53627,113.89166 113.37243,137.4957 116.64111,223.5 51.724325,215.46877 -9.4234149,263.36275 0,332.639 c 22.772609,70.28805 95.967796,80.40283 153.53411,50.08587 0,0 31.37948,27.12886 80.65156,28.08222 49.27207,0.95335 76.50674,-23.71203 76.50674,-23.71203 68.24528,28.89773 132.72696,20.10091 149.93253,-27.72288 z"
   id="path3"
   sodipodi:nodetypes="aczcaczca" />

</svg>
