<?xml version="1.0" encoding="UTF-8" standalone="no"?>
<svg
   data-name="Layer 1"
   id="Layer_1"
   viewBox="0 0 64 64"
   version="1.1"
   sodipodi:docname="UVicon.svg"
   inkscape:version="1.3.2 (091e20e, 2023-11-25, custom)"
   xmlns:inkscape="http://www.inkscape.org/namespaces/inkscape"
   xmlns:sodipodi="http://sodipodi.sourceforge.net/DTD/sodipodi-0.dtd"
   xmlns="http://www.w3.org/2000/svg"
   xmlns:svg="http://www.w3.org/2000/svg">
  <sodipodi:namedview
     id="namedview9"
     pagecolor="#ffffff"
     bordercolor="#000000"
     borderopacity="0.25"
     inkscape:showpageshadow="2"
     inkscape:pageopacity="0.0"
     inkscape:pagecheckerboard="0"
     inkscape:deskcolor="#d1d1d1"
     inkscape:zoom="12.140625"
     inkscape:cx="32"
     inkscape:cy="32"
     inkscape:window-width="1920"
     inkscape:window-height="991"
     inkscape:window-x="-9"
     inkscape:window-y="-9"
     inkscape:window-maximized="1"
     inkscape:current-layer="Layer_1" />
  <defs
     id="defs1">
    <style
       id="style1">.cls-1{fill:#efcc00;}.cls-2{fill:none;stroke:#efcc00;stroke-linecap:round;stroke-miterlimit:10;stroke-width:3px;}.cls-3{fill:#fff;}</style>
  </defs>
  <title
     id="title1" />
  <circle
     class="cls-1"
     cx="32"
     cy="32"
     r="17"
     id="circle1"
     style="fill:#000000;fill-opacity:1" />
  <line
     class="cls-2"
     x1="32"
     x2="32"
     y1="5"
     y2="11"
     id="line1"
     style="stroke:#000000;stroke-opacity:1" />
  <line
     class="cls-2"
     x1="32"
     x2="32"
     y1="53"
     y2="59"
     id="line2"
     style="stroke:#000000;stroke-opacity:1" />
  <line
     class="cls-2"
     x1="59"
     x2="53"
     y1="32"
     y2="32"
     id="line3"
     style="stroke:#000000;stroke-opacity:1" />
  <line
     class="cls-2"
     x1="11"
     x2="5"
     y1="32"
     y2="32"
     id="line4"
     style="stroke:#000000;stroke-opacity:1" />
  <line
     class="cls-2"
     x1="51.09"
     x2="46.85"
     y1="12.91"
     y2="17.15"
     id="line5"
     style="stroke:#000000;stroke-opacity:1" />
  <line
     class="cls-2"
     x1="17.15"
     x2="12.91"
     y1="46.85"
     y2="51.09"
     id="line6"
     style="stroke:#000000;stroke-opacity:1" />
  <line
     class="cls-2"
     x1="51.09"
     x2="46.85"
     y1="51.09"
     y2="46.85"
     id="line7"
     style="stroke:#000000;stroke-opacity:1" />
  <line
     class="cls-2"
     x1="17.15"
     x2="12.91"
     y1="17.15"
     y2="12.91"
     id="line8"
     style="stroke:#000000;stroke-opacity:1" />
  <path
     class="cls-3"
     d="M24.79,27.75V33.7c0,1.78.67,2.68,1.87,2.68s1.9-.86,1.9-2.68V27.75h2.33v5.79c0,3.19-1.61,4.7-4.3,4.7s-4.14-1.44-4.14-4.73V27.75Z"
     id="path8" />
  <path
     class="cls-3"
     d="M35.35,38.08,32,27.75H34.6l1.26,4.37c.35,1.23.67,2.41.92,3.69h0c.26-1.24.58-2.47.93-3.65l1.32-4.41h2.48L38.07,38.08Z"
     id="path9" />
</svg>
